<svg width="58" height="28" viewBox="0 0 58 28" fill="none" xmlns="http://www.w3.org/2000/svg">
<rect width="58" height="28" rx="14" fill="#FF3333" fill-opacity="0.1"/>
<path d="M14.256 16.324V15.316H17.916V16.324H14.256ZM24.3728 18.988L18.5168 19V18.1L21.3128 15.688C22.7168 14.476 23.1128 13.888 23.1128 12.964C23.1128 11.872 22.4888 11.224 21.4448 11.224C20.3768 11.224 19.6808 12.004 19.6568 13.24H18.4808C18.5168 11.38 19.6928 10.168 21.4568 10.168C23.1968 10.168 24.3128 11.224 24.3128 12.892C24.3128 14.128 23.7008 15.004 22.1648 16.336L20.3648 17.896H24.3728V18.988ZM25.4552 14.668C25.4552 11.98 26.8472 10.156 29.0312 10.156C31.2032 10.156 32.5952 11.98 32.5952 14.668C32.5952 17.368 31.2632 19.156 29.0312 19.156C26.7872 19.156 25.4552 17.368 25.4552 14.668ZM26.6192 14.668C26.6192 16.804 27.5072 18.1 29.0312 18.1C30.5552 18.1 31.4312 16.804 31.4312 14.668C31.4312 12.508 30.5552 11.212 29.0312 11.212C27.5072 11.212 26.6192 12.508 26.6192 14.668ZM38.0715 12.376C38.0715 13.66 37.1595 14.584 35.8755 14.584C34.6035 14.584 33.6915 13.66 33.6915 12.376C33.6915 11.08 34.6035 10.156 35.8755 10.156C37.1595 10.156 38.0715 11.08 38.0715 12.376ZM42.6435 10.336L36.0555 19H34.9035L41.4915 10.336H42.6435ZM37.1475 12.376C37.1475 11.596 36.6315 11.056 35.8755 11.056C35.1315 11.056 34.6155 11.596 34.6155 12.376C34.6155 13.144 35.1315 13.684 35.8755 13.684C36.6195 13.684 37.1475 13.144 37.1475 12.376ZM43.8795 16.948C43.8795 18.232 42.9555 19.156 41.6835 19.156C40.4115 19.156 39.4875 18.232 39.4875 16.948C39.4875 15.652 40.4115 14.74 41.6835 14.74C42.9555 14.74 43.8795 15.652 43.8795 16.948ZM42.9435 16.948C42.9435 16.168 42.4395 15.628 41.6835 15.628C40.9395 15.628 40.4235 16.168 40.4235 16.948C40.4235 17.716 40.9395 18.256 41.6835 18.256C42.4275 18.256 42.9435 17.716 42.9435 16.948Z" fill="#FF3333"/>
</svg>
