<svg width="58" height="28" viewBox="0 0 58 28" fill="none" xmlns="http://www.w3.org/2000/svg">
<rect width="58" height="28" rx="14" fill="#FF3333" fill-opacity="0.1"/>
<path d="M13.756 16.324V15.316H17.416V16.324H13.756ZM21.2868 14.512H20.4228V13.732L22.8828 11.368H18.9828V10.324H24.3708V11.272L21.9948 13.54C23.4708 13.72 24.5868 14.716 24.5868 16.276C24.5868 18.028 23.2668 19.144 21.5028 19.144C19.7988 19.144 18.5748 18.1 18.5748 16.3H19.7388C19.7388 17.428 20.4348 18.088 21.5268 18.088C22.6548 18.088 23.3868 17.368 23.3868 16.252C23.3868 15.208 22.6668 14.512 21.2868 14.512ZM25.6232 14.668C25.6232 11.98 27.0152 10.156 29.1992 10.156C31.3712 10.156 32.7632 11.98 32.7632 14.668C32.7632 17.368 31.4312 19.156 29.1992 19.156C26.9552 19.156 25.6232 17.368 25.6232 14.668ZM26.7872 14.668C26.7872 16.804 27.6752 18.1 29.1992 18.1C30.7232 18.1 31.5992 16.804 31.5992 14.668C31.5992 12.508 30.7232 11.212 29.1992 11.212C27.6752 11.212 26.7872 12.508 26.7872 14.668ZM38.2395 12.376C38.2395 13.66 37.3275 14.584 36.0435 14.584C34.7715 14.584 33.8595 13.66 33.8595 12.376C33.8595 11.08 34.7715 10.156 36.0435 10.156C37.3275 10.156 38.2395 11.08 38.2395 12.376ZM42.8115 10.336L36.2235 19H35.0715L41.6595 10.336H42.8115ZM37.3155 12.376C37.3155 11.596 36.7995 11.056 36.0435 11.056C35.2995 11.056 34.7835 11.596 34.7835 12.376C34.7835 13.144 35.2995 13.684 36.0435 13.684C36.7875 13.684 37.3155 13.144 37.3155 12.376ZM44.0475 16.948C44.0475 18.232 43.1235 19.156 41.8515 19.156C40.5795 19.156 39.6555 18.232 39.6555 16.948C39.6555 15.652 40.5795 14.74 41.8515 14.74C43.1235 14.74 44.0475 15.652 44.0475 16.948ZM43.1115 16.948C43.1115 16.168 42.6075 15.628 41.8515 15.628C41.1075 15.628 40.5915 16.168 40.5915 16.948C40.5915 17.716 41.1075 18.256 41.8515 18.256C42.5955 18.256 43.1115 17.716 43.1115 16.948Z" fill="#FF3333"/>
</svg>
